<svg width="31" height="30" viewBox="0 0 31 30" fill="none" xmlns="http://www.w3.org/2000/svg">
<path fill-rule="evenodd" clip-rule="evenodd" d="M15.5 0C6.93625 0 0 6.87464 0 15.3623C0 22.1601 4.43687 27.9018 10.5981 29.9373C11.3731 30.0717 11.6637 29.6109 11.6637 29.2076C11.6637 28.8428 11.6444 27.633 11.6444 26.3464C7.75 27.0569 6.7425 25.4054 6.4325 24.5413C6.25812 24.0996 5.5025 22.7362 4.84375 22.3714C4.30125 22.0833 3.52625 21.3728 4.82437 21.3536C6.045 21.3344 6.91687 22.4674 7.2075 22.9283C8.6025 25.2518 10.8306 24.5989 11.7219 24.1957C11.8575 23.1971 12.2644 22.525 12.71 22.1409C9.26125 21.7569 5.6575 20.4319 5.6575 14.5558C5.6575 12.8851 6.25812 11.5025 7.24625 10.4272C7.09125 10.0431 6.54875 8.46848 7.40125 6.35616C7.40125 6.35616 8.69937 5.9529 11.6637 7.9308C12.9037 7.58514 14.2212 7.41232 15.5387 7.41232C16.8562 7.41232 18.1737 7.58514 19.4137 7.9308C22.3781 5.9337 23.6762 6.35616 23.6762 6.35616C24.5287 8.46848 23.9862 10.0431 23.8313 10.4272C24.8194 11.5025 25.42 12.8659 25.42 14.5558C25.42 20.4511 21.7969 21.7569 18.3481 22.1409C18.91 22.621 19.3944 23.5428 19.3944 24.983C19.3944 27.0377 19.375 28.6891 19.375 29.2076C19.375 29.6109 19.6656 30.0909 20.4406 29.9373C23.5176 28.9077 26.1914 26.9477 28.0856 24.3331C29.9798 21.7185 30.9991 18.5811 31 15.3623C31 6.87464 24.0637 0 15.5 0Z" fill="white"/>
</svg>
