<svg width="82" height="30" viewBox="0 0 82 30" fill="none" xmlns="http://www.w3.org/2000/svg">
<g filter="url(#filter0_d_1_32)">
<path d="M4.35227 2.82386V0.636363H19.625V2.82386H13.2216V21H10.7557V2.82386H4.35227ZM27.1023 21.3182C25.7235 21.3182 24.5137 20.9901 23.473 20.3338C22.4389 19.6776 21.6302 18.7595 21.0469 17.5795C20.4702 16.3996 20.1818 15.0208 20.1818 13.4432C20.1818 11.8523 20.4702 10.4635 21.0469 9.27699C21.6302 8.09043 22.4389 7.16903 23.473 6.51278C24.5137 5.85653 25.7235 5.52841 27.1023 5.52841C28.4811 5.52841 29.6875 5.85653 30.7216 6.51278C31.7623 7.16903 32.571 8.09043 33.1477 9.27699C33.7311 10.4635 34.0227 11.8523 34.0227 13.4432C34.0227 15.0208 33.7311 16.3996 33.1477 17.5795C32.571 18.7595 31.7623 19.6776 30.7216 20.3338C29.6875 20.9901 28.4811 21.3182 27.1023 21.3182ZM27.1023 19.2102C28.1496 19.2102 29.0114 18.9418 29.6875 18.4048C30.3636 17.8679 30.8641 17.1619 31.1889 16.2869C31.5137 15.4119 31.6761 14.464 31.6761 13.4432C31.6761 12.4223 31.5137 11.4711 31.1889 10.5895C30.8641 9.70786 30.3636 8.99526 29.6875 8.4517C29.0114 7.90814 28.1496 7.63636 27.1023 7.63636C26.0549 7.63636 25.1932 7.90814 24.517 8.4517C23.8409 8.99526 23.3404 9.70786 23.0156 10.5895C22.6908 11.4711 22.5284 12.4223 22.5284 13.4432C22.5284 14.464 22.6908 15.4119 23.0156 16.2869C23.3404 17.1619 23.8409 17.8679 24.517 18.4048C25.1932 18.9418 26.0549 19.2102 27.1023 19.2102ZM39.315 21.1591C38.8245 21.1591 38.4035 20.9834 38.0522 20.6321C37.7009 20.2808 37.5252 19.8598 37.5252 19.3693C37.5252 18.8788 37.7009 18.4579 38.0522 18.1065C38.4035 17.7552 38.8245 17.5795 39.315 17.5795C39.8055 17.5795 40.2264 17.7552 40.5778 18.1065C40.9291 18.4579 41.1048 18.8788 41.1048 19.3693C41.1048 19.6941 41.0219 19.9924 40.8562 20.2642C40.6971 20.536 40.4817 20.7547 40.2099 20.9205C39.9447 21.0795 39.6464 21.1591 39.315 21.1591ZM50.4862 21.2486C49.3261 21.2486 48.2754 20.9503 47.3342 20.3537C46.3995 19.7505 45.6571 18.8655 45.1069 17.6989C44.5633 16.5256 44.2915 15.0871 44.2915 13.3835C44.2915 11.6335 44.5733 10.1785 45.1367 9.01847C45.7002 7.8518 46.4492 6.98011 47.3839 6.40341C48.3252 5.82008 49.3559 5.52841 50.4762 5.52841C51.3313 5.52841 52.0439 5.67424 52.614 5.96591C53.1907 6.25095 53.6547 6.6089 54.006 7.03977C54.364 7.46401 54.6358 7.88163 54.8214 8.29261H54.9506V0.636363H59.1765V21H55.0004V18.554H54.8214C54.6225 18.9782 54.3408 19.3991 53.9762 19.8168C53.6183 20.2277 53.1509 20.5691 52.5742 20.8409C52.0041 21.1127 51.3081 21.2486 50.4862 21.2486ZM51.8285 17.8778C52.5112 17.8778 53.0879 17.6922 53.5586 17.321C54.0359 16.9432 54.4004 16.4162 54.6523 15.7401C54.9109 15.0639 55.0401 14.2718 55.0401 13.3636C55.0401 12.4555 54.9142 11.6667 54.6623 10.9972C54.4104 10.3277 54.0458 9.81061 53.5685 9.44602C53.0913 9.08144 52.5112 8.89915 51.8285 8.89915C51.1325 8.89915 50.5458 9.08807 50.0685 9.46591C49.5913 9.84375 49.23 10.3674 48.9847 11.0369C48.7395 11.7064 48.6168 12.482 48.6168 13.3636C48.6168 14.2519 48.7395 15.0374 48.9847 15.7202C49.2366 16.3963 49.5979 16.9266 50.0685 17.3111C50.5458 17.6889 51.1325 17.8778 51.8285 17.8778ZM69.5597 21.2983C68.0152 21.2983 66.6795 20.9702 65.5526 20.3139C64.4323 19.651 63.5672 18.7296 62.9574 17.5497C62.3475 16.3632 62.0426 14.9877 62.0426 13.4233C62.0426 11.8456 62.3475 10.4669 62.9574 9.28693C63.5672 8.10038 64.4323 7.17898 65.5526 6.52273C66.6795 5.85985 68.0152 5.52841 69.5597 5.52841C71.1042 5.52841 72.4366 5.85985 73.5568 6.52273C74.6837 7.17898 75.5521 8.10038 76.1619 9.28693C76.7718 10.4669 77.0767 11.8456 77.0767 13.4233C77.0767 14.9877 76.7718 16.3632 76.1619 17.5497C75.5521 18.7296 74.6837 19.651 73.5568 20.3139C72.4366 20.9702 71.1042 21.2983 69.5597 21.2983ZM69.5795 18.017C70.2822 18.017 70.8688 17.8182 71.3395 17.4205C71.8101 17.0161 72.1648 16.4659 72.4034 15.7699C72.6487 15.0739 72.7713 14.2817 72.7713 13.3935C72.7713 12.5052 72.6487 11.7131 72.4034 11.017C72.1648 10.321 71.8101 9.77083 71.3395 9.36648C70.8688 8.96212 70.2822 8.75994 69.5795 8.75994C68.8703 8.75994 68.2737 8.96212 67.7898 9.36648C67.3125 9.77083 66.9512 10.321 66.706 11.017C66.4673 11.7131 66.348 12.5052 66.348 13.3935C66.348 14.2817 66.4673 15.0739 66.706 15.7699C66.9512 16.4659 67.3125 17.0161 67.7898 17.4205C68.2737 17.8182 68.8703 18.017 69.5795 18.017Z" fill="white"/>
</g>
<defs>
<filter id="filter0_d_1_32" x="0.352295" y="0.636368" width="80.7244" height="28.6818" filterUnits="userSpaceOnUse" color-interpolation-filters="sRGB">
<feFlood flood-opacity="0" result="BackgroundImageFix"/>
<feColorMatrix in="SourceAlpha" type="matrix" values="0 0 0 0 0 0 0 0 0 0 0 0 0 0 0 0 0 0 127 0" result="hardAlpha"/>
<feOffset dy="4"/>
<feGaussianBlur stdDeviation="2"/>
<feComposite in2="hardAlpha" operator="out"/>
<feColorMatrix type="matrix" values="0 0 0 0 0 0 0 0 0 0 0 0 0 0 0 0 0 0 0.25 0"/>
<feBlend mode="normal" in2="BackgroundImageFix" result="effect1_dropShadow_1_32"/>
<feBlend mode="normal" in="SourceGraphic" in2="effect1_dropShadow_1_32" result="shape"/>
</filter>
</defs>
</svg>
