<svg width="35" height="35" viewBox="0 0 35 35" fill="none" xmlns="http://www.w3.org/2000/svg">
<path d="M24 11.3092C24 11.1391 23.8651 11 23.7001 11L21.2261 11.0116L17.5 15.591L13.7777 11.0155L11.2999 11.0039C11.1349 11.0039 11 11.1391 11 11.313C11 11.3864 11.0262 11.456 11.0712 11.514L15.9481 17.5039L11.0712 23.4899C11.0259 23.5465 11.0008 23.6174 11 23.6908C11 23.8609 11.1349 24 11.2999 24L13.7777 23.9884L17.5 19.409L21.2223 23.9845L23.6964 23.9961C23.8613 23.9961 23.9963 23.8609 23.9963 23.687C23.9963 23.6136 23.97 23.544 23.925 23.486L19.0557 17.5L23.9325 11.5101C23.9775 11.456 24 11.3826 24 11.3092Z" fill="white"/>
<path d="M17.5 0C7.83594 0 0 7.83594 0 17.5C0 27.1641 7.83594 35 17.5 35C27.1641 35 35 27.1641 35 17.5C35 7.83594 27.1641 0 17.5 0ZM17.5 32.0312C9.47656 32.0312 2.96875 25.5234 2.96875 17.5C2.96875 9.47656 9.47656 2.96875 17.5 2.96875C25.5234 2.96875 32.0312 9.47656 32.0312 17.5C32.0312 25.5234 25.5234 32.0312 17.5 32.0312Z" fill="white"/>
</svg>
